<?xml version="1.0" encoding="UTF-8" standalone="no"?>
<!-- Created with Inkscape (http://www.inkscape.org/) -->

<svg
   width="200"
   height="200"
   viewBox="0 0 52.916665 52.916666"
   version="1.1"
   id="svg5"
   xml:space="preserve"
   xmlns="http://www.w3.org/2000/svg"
   xmlns:svg="http://www.w3.org/2000/svg"><defs
     id="defs2" /><g
     id="layer3"
     style="display:inline"><path
       style="opacity:1;fill:#ffffff;fill-opacity:1;stroke-width:0.264583"
       d="m 25.377166,52.377107 2.91089,-0.137568 19.086486,-11.571364 0.977858,-0.01519 1.477946,-2.85223 0.02148,-23.146308 L 48.714441,11.965013 28.459102,0.22083643 25.089543,0.29198443 5.3708753,11.956554 3.5173135,14.725619 3.8310499,37.832344 5.3935222,40.858027 Z"
       id="path701" /></g><g
     id="layer6"
     style="display:inline;fill:#ed46c6;fill-opacity:1"
     transform="matrix(1.0227824,0,0,1.0107739,-0.24755003,-0.45216824)"><path
       style="opacity:1;fill:#7bb0d0;fill-opacity:1;fill-rule:evenodd;stroke:none;stroke-width:0.243331;stroke-dasharray:none;stroke-opacity:1"
       d="m 19.548804,17.244876 6.501456,6.399427 0.03889,-2.978256 -2.664632,-2.27126 z"
       id="path15103" /><path
       style="opacity:1;fill:#7bb0d0;fill-opacity:1;fill-rule:evenodd;stroke:none;stroke-width:0.243331;stroke-dasharray:none;stroke-opacity:1"
       d="m 18.708259,17.207242 c 0,0 7.431621,7.042833 7.260539,7.042833 -0.171083,0 -10.088563,3.206354 -10.088563,3.206354 z"
       id="path15609" /><path
       style="opacity:1;fill:#7bb0d0;fill-opacity:1;fill-rule:evenodd;stroke:none;stroke-width:0.243331;stroke-dasharray:none;stroke-opacity:1"
       d="m 17.481961,17.490856 -4.135413,3.309362 1.416835,-2.363913 z"
       id="path15611" /><path
       style="opacity:1;fill:#7bb0d0;fill-opacity:1;fill-rule:evenodd;stroke:none;stroke-width:0.243331;stroke-dasharray:none;stroke-opacity:1"
       d="m 18.256112,17.43879 -2.682835,9.548662 -2.650222,-5.266843 z"
       id="path15613" /><path
       style="opacity:1;fill:#7bb0d0;fill-opacity:1;fill-rule:evenodd;stroke:none;stroke-width:0.243331;stroke-dasharray:none;stroke-opacity:1"
       d="M 12.974866,22.817813 13.1001,27.700329 15.253084,27.48414 Z"
       id="path15615" /><path
       style="opacity:1;fill:#7bb0d0;fill-opacity:1;fill-rule:evenodd;stroke:none;stroke-width:0.243331;stroke-dasharray:none;stroke-opacity:1"
       d="m 15.391512,27.99232 0.135937,3.131538 -2.345686,-2.844947 z"
       id="path15617" /><path
       style="opacity:1;fill:#7bb0d0;fill-opacity:1;fill-rule:evenodd;stroke:none;stroke-width:0.243331;stroke-dasharray:none;stroke-opacity:1"
       d="m 15.857075,28.117774 10.053946,5.696818 -4.298642,2.37015 -5.643566,-4.722402 z"
       id="path15619" /><path
       style="opacity:1;fill:#7bb0d0;fill-opacity:1;fill-rule:evenodd;stroke:none;stroke-width:0.243331;stroke-dasharray:none;stroke-opacity:1"
       d="m 26.106072,34.211735 0.05784,5.764198 -4.121594,-3.430882 z"
       id="path15621" /><path
       style="opacity:1;fill:#7bb0d0;fill-opacity:1;fill-rule:evenodd;stroke:none;stroke-width:0.243331;stroke-dasharray:none;stroke-opacity:1"
       d="m 26.179581,24.572203 -0.06523,8.777411 c 0,0 -10.150719,-5.208075 -9.959115,-5.394616 0.191605,-0.186541 10.02434,-3.382795 10.02434,-3.382795 z"
       id="path15623" /><path
       style="fill:#7bb0d0;fill-opacity:1;fill-rule:evenodd;stroke:none;stroke-width:0.243331;stroke-dasharray:none;stroke-opacity:1"
       d="m 33.341249,17.277747 -6.501455,6.399426 -0.03889,-2.978256 2.664634,-2.271257 z"
       id="path15103-7" /><path
       style="fill:#7bb0d0;fill-opacity:1;fill-rule:evenodd;stroke:none;stroke-width:0.243331;stroke-dasharray:none;stroke-opacity:1"
       d="m 34.181794,17.240113 c 0,0 -7.43162,7.042832 -7.260539,7.042832 0.171083,0 10.088563,3.206355 10.088563,3.206355 z"
       id="path15609-9" /><path
       style="fill:#7bb0d0;fill-opacity:1;fill-rule:evenodd;stroke:none;stroke-width:0.243331;stroke-dasharray:none;stroke-opacity:1"
       d="m 35.408092,17.523726 4.135413,3.309363 -1.416834,-2.363913 z"
       id="path15611-2" /><path
       style="fill:#7bb0d0;fill-opacity:1;fill-rule:evenodd;stroke:none;stroke-width:0.243331;stroke-dasharray:none;stroke-opacity:1"
       d="m 34.633941,17.471661 2.682836,9.548662 2.650222,-5.266844 z"
       id="path15613-0" /><path
       style="fill:#7bb0d0;fill-opacity:1;fill-rule:evenodd;stroke:none;stroke-width:0.243331;stroke-dasharray:none;stroke-opacity:1"
       d="M 39.915189,22.850683 39.789954,27.733201 37.63697,27.51701 Z"
       id="path15615-2" /><path
       style="fill:#7bb0d0;fill-opacity:1;fill-rule:evenodd;stroke:none;stroke-width:0.243331;stroke-dasharray:none;stroke-opacity:1"
       d="m 37.498541,28.025191 -0.135937,3.131538 2.345687,-2.844947 z"
       id="path15617-3" /><path
       style="fill:#7bb0d0;fill-opacity:1;fill-rule:evenodd;stroke:none;stroke-width:0.243331;stroke-dasharray:none;stroke-opacity:1"
       d="m 37.032978,28.150644 -10.053946,5.696819 4.298643,2.370151 5.643565,-4.722402 z"
       id="path15619-7" /><path
       style="fill:#7bb0d0;fill-opacity:1;fill-rule:evenodd;stroke:none;stroke-width:0.243331;stroke-dasharray:none;stroke-opacity:1"
       d="m 26.783981,34.244605 -0.05783,5.7642 4.121592,-3.430882 z"
       id="path15621-5" /><path
       style="fill:#7bb0d0;fill-opacity:1;fill-rule:evenodd;stroke:none;stroke-width:0.243331;stroke-dasharray:none;stroke-opacity:1"
       d="m 26.710473,24.605074 0.06523,8.777411 c 0,0 10.150718,-5.208075 9.959114,-5.394616 C 36.54321,27.801328 26.710476,24.605074 26.710476,24.605074 Z"
       id="path15623-9" /></g><g
     id="layer2"
     style="display:inline"><path
       style="opacity:1;fill:#9059b9;fill-opacity:1;stroke-width:0.288584"
       d="M 28.457908,0.21876375 V 9.8021594 l 12.006351,7.0154226 8.253073,-4.854085 z"
       id="path454" /><path
       style="opacity:1;fill:#9059b9;fill-opacity:1;stroke-width:0.288584"
       d="m 49.856518,14.641077 0.0053,23.237884 -7.89873,-4.54671 0.0817,-13.981242 z"
       id="path456" /><path
       style="opacity:1;fill:#9059b9;fill-opacity:1;stroke-width:0.288584"
       d="M 40.168348,36.181575 48.37184,40.64951 28.309737,52.266266 28.26082,43.07826 Z"
       id="path458" /><path
       style="opacity:1;fill:#3cead4;fill-opacity:1;stroke-width:0.288584"
       d="m 5.3548539,40.8357 c 0.2051978,-0.14617 8.0062941,-4.741771 8.0062941,-4.741771 l 11.92798,7.068115 0.08786,9.232462 z"
       id="path556" /><path
       style="opacity:1;fill:#3cead4;fill-opacity:1;stroke-width:0.288584"
       d="m 3.5157703,14.729507 8.2393807,4.742504 0.02728,13.614985 -7.9559541,4.754675 z"
       id="path558" /><path
       style="opacity:1;fill:#3cead4;fill-opacity:1;stroke-width:0.288584"
       d="M 5.367276,11.959633 25.082016,0.29391074 25.290503,9.4330205 13.187798,16.589781 Z"
       id="path560" /></g></svg>
